<?xml version="1.0" standalone="no"?>
<!DOCTYPE svg PUBLIC "-//W3C//DTD SVG 20010904//EN"
 "http://www.w3.org/TR/2001/REC-SVG-20010904/DTD/svg10.dtd">
<svg version="1.0" xmlns="http://www.w3.org/2000/svg"
 width="1406.000000pt" height="1406.000000pt" viewBox="0 0 1406.000000 1406.000000"
 preserveAspectRatio="xMidYMid meet">
<metadata>
Created by potrace 1.11, written by Peter Selinger 2001-2013
</metadata>
<g transform="translate(0.000000,1406.000000) scale(0.100000,-0.100000)"
fill="#000000" stroke="none">
<path d="M7479 12883 c60 -108 200 -383 194 -383 -3 0 -33 26 -68 58 -192 180
-483 293 -754 292 l-86 0 80 -41 c156 -79 360 -237 427 -332 l23 -32 -50 36
c-448 326 -1587 289 -2340 -77 -240 -116 -464 -297 -575 -466 -56 -84 -95
-109 -250 -158 -147 -46 -261 -100 -362 -169 -88 -60 -134 -98 -102 -82 60 29
195 22 281 -14 l38 -17 -106 -38 c-153 -54 -269 -111 -378 -184 -96 -64 -221
-170 -221 -187 0 -5 46 -9 103 -9 l102 -1 -67 -36 c-254 -135 -468 -527 -468
-855 l0 -81 -74 -77 c-124 -130 -188 -294 -172 -440 l7 -57 -82 -16 c-184 -36
-255 -133 -215 -294 15 -61 15 -66 -3 -101 -50 -98 -66 -180 -66 -337 0 -112
4 -166 18 -215 20 -74 89 -223 135 -290 17 -25 28 -48 23 -53 -12 -12 -104 20
-147 51 -70 50 -67 50 -60 -4 21 -148 84 -319 161 -440 43 -68 154 -185 202
-215 l32 -20 -6 -77 c-11 -158 35 -370 112 -507 69 -124 190 -247 318 -323 94
-56 280 -131 265 -106 -6 10 -53 276 -63 357 -31 253 -45 412 -45 518 l0 126
34 6 c118 19 254 160 357 369 l33 67 75 6 c411 33 663 113 793 253 26 27 55
67 66 89 l21 39 128 12 c371 33 669 149 928 362 66 55 168 157 368 369 48 52
90 92 92 90 2 -3 0 -22 -5 -44 -17 -71 -12 -197 10 -268 54 -175 246 -316 478
-352 51 -8 54 4 7 29 -52 29 -139 124 -173 192 -72 143 -88 342 -42 516 l11
40 42 -59 c142 -200 324 -397 462 -501 39 -29 124 -79 190 -112 205 -102 376
-139 670 -146 l190 -4 -90 30 c-49 17 -117 46 -151 65 -65 36 -178 124 -171
131 3 3 67 -4 143 -16 139 -20 388 -27 428 -11 14 5 2 15 -59 45 -183 91 -288
287 -271 508 9 115 63 268 95 268 17 0 390 -498 614 -821 l66 -96 -87 35 c-65
26 -107 37 -164 40 l-77 5 -37 -37 c-19 -19 -34 -41 -32 -48 3 -7 22 -23 44
-35 72 -40 157 -117 201 -181 24 -35 43 -68 43 -73 0 -6 -17 -8 -44 -4 -95 15
-144 -21 -112 -83 22 -43 96 -116 208 -205 54 -43 125 -110 160 -150 131 -152
326 -427 475 -672 58 -95 71 -122 61 -131 -7 -7 -123 -99 -258 -205 -135 -106
-407 -323 -604 -483 -339 -274 -365 -298 -451 -406 -51 -63 -105 -127 -121
-142 l-30 -27 -23 50 c-29 61 -130 171 -212 233 -56 43 -58 45 -27 38 58 -13
318 -8 383 8 l60 14 -89 8 c-81 7 -242 33 -556 90 -413 74 -870 -58 -979 -284
-25 -52 -41 -158 -23 -158 5 0 13 11 16 25 9 36 117 147 190 194 79 52 201
104 309 133 105 27 268 32 292 7 15 -15 7 -17 -97 -22 -132 -6 -240 -32 -344
-82 -83 -40 -177 -122 -212 -184 -21 -38 -22 -41 -5 -41 40 0 100 23 128 50
37 35 98 65 148 74 l38 7 -6 -34 -7 -35 69 14 c71 15 313 57 396 69 46 6 48 8
33 24 -9 10 -16 21 -16 24 0 13 75 7 158 -13 46 -11 98 -20 115 -20 40 0 61
-15 167 -118 69 -67 82 -84 70 -92 -34 -22 -128 -42 -233 -49 -107 -7 -111 -8
-139 -39 -30 -34 -37 -82 -15 -99 43 -35 208 0 351 73 101 52 133 75 254 185
l84 76 45 -9 c38 -9 48 -7 66 9 277 248 1153 973 1175 973 11 0 87 -159 142
-298 64 -161 92 -281 93 -399 1 -57 4 -103 6 -103 4 0 215 128 307 186 l51 33
-23 133 c-67 391 -51 708 44 859 37 57 91 86 136 72 31 -9 32 -8 66 49 40 69
47 76 163 170 52 41 86 76 83 83 -7 19 126 82 206 96 83 15 181 1 248 -37 40
-21 28 -5 -14 21 -14 9 -15 20 -6 90 62 496 72 1073 24 1485 -53 463 -185 898
-382 1259 -33 61 -56 111 -51 111 20 0 88 -40 142 -85 31 -25 57 -44 57 -41 0
3 -14 50 -31 103 -237 742 -805 1385 -1447 1637 -159 62 -277 87 -447 93 -171
6 -273 -8 -408 -57 -44 -17 -81 -29 -81 -27 -1 1 -33 49 -71 107 -119 179
-254 305 -393 367 -45 20 -277 103 -289 103 -1 0 15 -30 36 -67z"/>
<path d="M10647 7576 c-147 -55 -240 -211 -292 -489 -25 -134 -24 -264 2 -382
12 -55 28 -154 34 -220 12 -120 12 -120 61 -193 28 -41 58 -92 69 -115 32 -72
22 -178 -24 -245 -54 -78 -76 -232 -39 -265 57 -52 149 12 247 168 20 33 59
83 85 110 86 88 140 243 126 358 -9 69 -51 144 -103 182 -37 26 -41 34 -37 60
7 38 48 77 72 68 76 -28 142 -140 162 -276 10 -66 -1 -152 -25 -199 -23 -47
-19 -46 31 2 172 168 203 440 67 576 -72 72 -159 99 -348 109 -124 6 -189 18
-201 36 -3 6 31 45 76 87 115 108 130 144 90 222 -24 47 -25 71 -5 109 18 37
34 42 72 26 72 -30 205 -190 324 -388 34 -56 59 -95 56 -87 -72 218 -85 300
-49 300 20 0 54 -21 95 -58 15 -14 27 -23 27 -20 0 13 -64 158 -92 208 -44 80
-132 193 -183 234 -97 80 -216 113 -298 82z"/>
<path d="M7250 7130 c-54 -8 -334 -100 -535 -175 -337 -126 -444 -195 -575
-369 l-65 -87 -3 50 c-2 30 5 70 17 105 11 32 15 56 9 56 -5 0 -56 -46 -112
-102 -107 -109 -165 -195 -193 -288 -9 -30 -18 -57 -20 -59 -1 -2 -19 11 -39
29 -42 37 -45 34 -70 -48 -42 -142 47 -263 195 -266 80 -1 138 37 322 211 171
161 181 167 521 317 119 52 292 133 385 179 92 47 191 92 218 100 140 44 299
54 524 33 178 -17 239 -15 279 10 56 36 6 94 -149 171 -177 87 -332 126 -544
136 -60 3 -135 2 -165 -3z"/>
<path d="M11180 6748 c0 -13 83 -209 87 -204 3 2 -9 38 -26 80 -31 78 -60 137
-61 124z"/>
<path d="M3420 6138 c-69 -18 -84 -38 -88 -118 -4 -64 -1 -77 27 -133 34 -66
77 -102 156 -128 47 -16 205 -17 350 -3 134 12 258 3 448 -35 204 -40 265 -40
333 -1 68 38 104 82 104 125 0 110 -257 225 -601 269 -237 31 -654 45 -729 24z"/>
<path d="M7243 5943 c9 -2 23 -2 30 0 6 3 -1 5 -18 5 -16 0 -22 -2 -12 -5z"/>
<path d="M7133 5933 c9 -2 25 -2 35 0 9 3 1 5 -18 5 -19 0 -27 -2 -17 -5z"/>
<path d="M7058 5923 c6 -2 18 -2 25 0 6 3 1 5 -13 5 -14 0 -19 -2 -12 -5z"/>
<path d="M7008 5913 c7 -3 16 -2 19 1 4 3 -2 6 -13 5 -11 0 -14 -3 -6 -6z"/>
<path d="M7282 5900 c0 -14 2 -19 5 -12 2 6 2 18 0 25 -3 6 -5 1 -5 -13z"/>
<path d="M6958 5903 c7 -3 16 -2 19 1 4 3 -2 6 -13 5 -11 0 -14 -3 -6 -6z"/>
<path d="M6908 5893 c7 -3 16 -2 19 1 4 3 -2 6 -13 5 -11 0 -14 -3 -6 -6z"/>
<path d="M6735 5850 c-3 -6 1 -7 9 -4 18 7 21 14 7 14 -6 0 -13 -4 -16 -10z"/>
<path d="M7282 5820 c0 -14 2 -19 5 -12 2 6 2 18 0 25 -3 6 -5 1 -5 -13z"/>
<path d="M6463 5725 c0 -22 2 -30 4 -17 2 12 2 30 0 40 -3 9 -5 -1 -4 -23z"/>
<path d="M7229 5703 c-13 -16 -12 -17 4 -4 9 7 17 15 17 17 0 8 -8 3 -21 -13z"/>
<path d="M3426 5588 c-40 -62 -142 -216 -226 -343 -83 -126 -156 -237 -161
-246 -6 -12 17 -6 84 22 51 22 98 43 105 47 7 4 66 108 131 232 64 124 135
258 156 298 39 71 39 73 21 88 -11 7 -24 14 -28 14 -5 0 -41 -51 -82 -112z"/>
<path d="M6810 5655 c13 -14 26 -25 28 -25 3 0 -5 11 -18 25 -13 14 -26 25
-28 25 -3 0 5 -11 18 -25z"/>
<path d="M7179 5653 c-13 -16 -12 -17 4 -4 16 13 21 21 13 21 -2 0 -10 -8 -17
-17z"/>
<path d="M4195 5600 c-101 -12 -226 -50 -288 -89 -26 -17 -60 -51 -77 -78 -25
-39 -30 -57 -30 -109 0 -67 13 -92 25 -46 10 42 63 119 104 151 86 68 185 99
346 108 61 3 107 3 104 -1 -3 -3 -44 -17 -90 -31 -187 -54 -294 -114 -359
-199 -21 -28 -37 -52 -35 -54 12 -13 110 22 138 48 43 41 106 77 174 101 82
28 83 27 66 -32 -8 -28 -13 -53 -10 -55 3 -3 71 0 151 7 180 14 319 9 362 -14
l32 -16 6 37 c3 20 3 54 -1 74 -5 32 -3 38 13 38 31 0 98 -38 138 -79 l39 -40
-13 -45 c-7 -25 -10 -56 -7 -68 5 -18 -4 -34 -41 -72 -26 -28 -40 -44 -30 -37
22 16 39 -8 74 -108 15 -42 31 -80 35 -85 9 -10 44 64 60 129 13 51 0 85 -32
85 -11 0 -18 4 -14 10 4 6 15 6 31 0 71 -28 275 2 487 70 l97 31 -2 64 c-2 36
-4 65 -5 65 -1 0 -34 -18 -75 -39 -91 -49 -198 -80 -306 -88 l-83 -6 12 26
c16 36 -4 82 -52 117 -65 47 -300 158 -380 180 -176 48 -404 68 -564 50z"/>
<path d="M7048 5593 c7 -3 16 -2 19 1 4 3 -2 6 -13 5 -11 0 -14 -3 -6 -6z"/>
<path d="M6968 5583 c6 -2 18 -2 25 0 6 3 1 5 -13 5 -14 0 -19 -2 -12 -5z"/>
<path d="M6613 5573 c9 -2 25 -2 35 0 9 3 1 5 -18 5 -19 0 -27 -2 -17 -5z"/>
<path d="M6670 5566 c0 -2 7 -7 16 -10 8 -3 12 -2 9 4 -6 10 -25 14 -25 6z"/>
<path d="M6938 5453 c6 -2 18 -2 25 0 6 3 1 5 -13 5 -14 0 -19 -2 -12 -5z"/>
<path d="M5729 5423 c-13 -16 -12 -17 4 -4 9 7 17 15 17 17 0 8 -8 3 -21 -13z"/>
<path d="M4700 5246 c0 -2 18 -6 40 -8 22 -2 40 0 40 4 0 5 -18 8 -40 8 -22 0
-40 -2 -40 -4z"/>
<path d="M4613 5233 c9 -2 25 -2 35 0 9 3 1 5 -18 5 -19 0 -27 -2 -17 -5z"/>
<path d="M4523 5223 c9 -2 23 -2 30 0 6 3 -1 5 -18 5 -16 0 -22 -2 -12 -5z"/>
<path d="M4443 5213 c9 -2 23 -2 30 0 6 3 -1 5 -18 5 -16 0 -22 -2 -12 -5z"/>
<path d="M4363 5203 c9 -2 23 -2 30 0 6 3 -1 5 -18 5 -16 0 -22 -2 -12 -5z"/>
<path d="M4714 5158 l-19 -23 23 19 c21 18 27 26 19 26 -2 0 -12 -10 -23 -22z"/>
<path d="M4340 5145 c13 -14 26 -25 28 -25 3 0 -5 11 -18 25 -13 14 -26 25
-28 25 -3 0 5 -11 18 -25z"/>
<path d="M3978 5143 c7 -3 16 -2 19 1 4 3 -2 6 -13 5 -11 0 -14 -3 -6 -6z"/>
<path d="M3928 5133 c7 -3 16 -2 19 1 4 3 -2 6 -13 5 -11 0 -14 -3 -6 -6z"/>
<path d="M3878 5123 c7 -3 16 -2 19 1 4 3 -2 6 -13 5 -11 0 -14 -3 -6 -6z"/>
<path d="M3828 5113 c7 -3 16 -2 19 1 4 3 -2 6 -13 5 -11 0 -14 -3 -6 -6z"/>
<path d="M4407 5099 c7 -7 15 -10 18 -7 3 3 -2 9 -12 12 -14 6 -15 5 -6 -5z"/>
<path d="M4503 5073 c15 -2 37 -2 50 0 12 2 0 4 -28 4 -27 0 -38 -2 -22 -4z"/>
<path d="M3668 5043 c7 -3 16 -2 19 1 4 3 -2 6 -13 5 -11 0 -14 -3 -6 -6z"/>
<path d="M3728 5033 c12 -2 32 -2 45 0 12 2 2 4 -23 4 -25 0 -35 -2 -22 -4z"/>
<path d="M4318 4883 c6 -2 18 -2 25 0 6 3 1 5 -13 5 -14 0 -19 -2 -12 -5z"/>
<path d="M4448 4873 c7 -3 16 -2 19 1 4 3 -2 6 -13 5 -11 0 -14 -3 -6 -6z"/>
<path d="M2843 4699 c-95 -146 -101 -172 -48 -195 19 -7 56 -14 82 -14 99 0
308 67 340 109 22 28 11 63 -27 86 -30 17 -51 20 -147 19 l-112 -2 -3 63 -3
63 -82 -129z"/>
<path d="M6695 4100 c78 -115 55 -291 -51 -397 -57 -57 -84 -63 -129 -29 -58
44 -98 56 -190 56 -133 0 -183 -26 -395 -200 -151 -124 -300 -181 -394 -150
-21 7 -65 33 -100 60 -72 55 -97 65 -126 50 -27 -14 -25 -32 7 -71 30 -35 86
-63 148 -75 70 -12 167 -70 315 -187 125 -99 170 -108 192 -36 9 31 9 60 0
128 -16 121 -15 151 8 188 40 67 164 134 310 168 36 8 68 15 73 15 4 0 28 -19
54 -42 44 -42 47 -43 110 -42 52 1 73 7 111 31 100 62 155 175 156 318 0 99
-16 151 -68 213 -48 56 -69 58 -31 2z"/>
<path d="M6325 2877 c-64 -22 -95 -42 -180 -118 -136 -121 -179 -132 -277 -73
-106 65 -181 78 -248 44 -50 -25 -85 -84 -106 -178 -18 -82 -50 -136 -81 -140
-15 -2 -33 11 -64 47 -50 58 -59 53 -59 -29 0 -72 33 -141 72 -151 15 -4 78
-10 140 -14 l114 -7 36 -67 c184 -334 470 -437 854 -306 229 78 361 202 603
564 108 161 151 206 208 217 53 10 136 -9 217 -51 38 -19 72 -33 74 -30 11 11
-63 139 -106 183 -84 85 -168 106 -262 66 -39 -16 -71 -19 -245 -19 -191 0
-206 2 -340 33 -161 38 -290 49 -350 29z m419 -516 c9 -15 -68 -123 -127 -179
-131 -123 -327 -162 -503 -102 -104 36 -174 99 -174 156 0 20 6 21 128 27 97
4 184 18 367 56 243 50 299 58 309 42z"/>
</g>
</svg>
